# xmcd CD database file
#
# Track frame offsets:
#	150
#	27975
#	63077
#	69962
#	88312
#	120199
#	139238
#	166686
#	187114
#	208011
#	230227
#	246078
#
# Disc length: 3596 seconds
#
# Revision: 0
# Processed by: cddbd v1.5.2PL0 Copyright (c) Steve Scherf et al.
# Submitted via: CDex 1.70beta2
#
DISCID=a50e0a0c
DTITLE=Charlie Haden - Quartet West - Now Is The Hour
DYEAR=1995
DGENRE=Jazz
TTITLE0=Here's Looking At You
TTITLE1=The Left Hand Of God
TTITLE2=Requiem
TTITLE3=Back Home Blues
TTITLE4=There In A Dream
TTITLE5=Al Trough The Night
TTITLE6=Detour Ahead
TTITLE7=Blue Pearl
TTITLE8=When Tomorrow comes
TTITLE9=Palo Alto
TTITLE10=Marables's Parable
TTITLE11=Now Is The Hour (Haere Ra)
EXTD=YEAR: 1995
EXTT0=
EXTT1=
EXTT2=
EXTT3=
EXTT4=
EXTT5=
EXTT6=
EXTT7=
EXTT8=
EXTT9=
EXTT10=
EXTT11=
PLAYORDER=
